<svg xmlns="http://www.w3.org/2000/svg" version="1.1" xmlns:xlink="http://www.w3.org/1999/xlink" xmlns:svgjs="http://svgjs.dev/svgjs" width="1440" height="560" preserveAspectRatio="none" viewBox="0 0 1440 560">
    <g mask="url(#SvgjsMask1002)" fill="none">
        <rect width="1440" height="560" x="0" y="0" fill="rgba(0, 0, 0, 1)"></rect>
        <path d="M-80.08 351.01L-80.08 351.01" stroke="#132e65" stroke-width="1.5"></path>
        <path d="M-80.08 351.01L-106.93 527.06" stroke="#132e65" stroke-width="1.5"></path>
        <path d="M-80.08 351.01L86.44 559.13" stroke="#132e65" stroke-width="1.5"></path>
        <path d="M-80.08 351.01L-62.14 647.74" stroke="#132e65" stroke-width="1.5"></path>
        <path d="M-80.08 351.01L246.01 374.16" stroke="#132e65" stroke-width="1.5"></path>
        <path d="M-80.08 351.01L210.8 527.46" stroke="#132e65" stroke-width="1.5"></path>
        <path d="M-106.93 527.06L-106.93 527.06" stroke="#132e65" stroke-width="1.5"></path>
        <path d="M-106.93 527.06L-62.14 647.74" stroke="#132e65" stroke-width="1.5"></path>
        <path d="M-62.14 647.74L-62.14 647.74" stroke="#132e65" stroke-width="1.5"></path>
        <path d="M-62.14 647.74L99.03 706.12" stroke="#132e65" stroke-width="1.5"></path>
        <path d="M-62.14 647.74L86.44 559.13" stroke="#132e65" stroke-width="1.5"></path>
        <path d="M-62.14 647.74L209.19 680.43" stroke="#132e65" stroke-width="1.5"></path>
        <path d="M86.44 559.13L86.44 559.13" stroke="#132e65" stroke-width="1.5"></path>
        <path d="M86.44 559.13L210.8 527.46" stroke="#132e65" stroke-width="1.5"></path>
        <path d="M86.44 559.13L99.03 706.12" stroke="#132e65" stroke-width="1.5"></path>
        <path d="M86.44 559.13L209.19 680.43" stroke="#132e65" stroke-width="1.5"></path>
        <path d="M86.44 559.13L-106.93 527.06" stroke="#132e65" stroke-width="1.5"></path>
        <path d="M86.44 559.13L246.01 374.16" stroke="#132e65" stroke-width="1.5"></path>
        <path d="M99.03 706.12L99.03 706.12" stroke="#132e65" stroke-width="1.5"></path>
        <path d="M99.03 706.12L209.19 680.43" stroke="#132e65" stroke-width="1.5"></path>
        <path d="M246.01 374.16L246.01 374.16" stroke="#132e65" stroke-width="1.5"></path>
        <path d="M246.01 374.16L356.52 362.41" stroke="#132e65" stroke-width="1.5"></path>
        <path d="M246.01 374.16L210.8 527.46" stroke="#132e65" stroke-width="1.5"></path>
        <path d="M246.01 374.16L379.77 509.89" stroke="#132e65" stroke-width="1.5"></path>
        <path d="M210.8 527.46L210.8 527.46" stroke="#132e65" stroke-width="1.5"></path>
        <path d="M209.19 680.43L209.19 680.43" stroke="#132e65" stroke-width="1.5"></path>
        <path d="M209.19 680.43L210.8 527.46" stroke="#132e65" stroke-width="1.5"></path>
        <path d="M209.19 680.43L395.28 685.76" stroke="#132e65" stroke-width="1.5"></path>
        <path d="M209.19 680.43L379.77 509.89" stroke="#132e65" stroke-width="1.5"></path>
        <path d="M356.52 362.41L356.52 362.41" stroke="#132e65" stroke-width="1.5"></path>
        <path d="M356.52 362.41L499.4 395.21" stroke="#132e65" stroke-width="1.5"></path>
        <path d="M356.52 362.41L379.77 509.89" stroke="#132e65" stroke-width="1.5"></path>
        <path d="M356.52 362.41L210.8 527.46" stroke="#132e65" stroke-width="1.5"></path>
        <path d="M356.52 362.41L515.17 551.91" stroke="#132e65" stroke-width="1.5"></path>
        <path d="M356.52 362.41L657.34 347.07" stroke="#132e65" stroke-width="1.5"></path>
        <path d="M379.77 509.89L379.77 509.89" stroke="#132e65" stroke-width="1.5"></path>
        <path d="M379.77 509.89L515.17 551.91" stroke="#132e65" stroke-width="1.5"></path>
        <path d="M379.77 509.89L499.4 395.21" stroke="#132e65" stroke-width="1.5"></path>
        <path d="M395.28 685.76L395.28 685.76" stroke="#132e65" stroke-width="1.5"></path>
        <path d="M395.28 685.76L487.86 702.02" stroke="#132e65" stroke-width="1.5"></path>
        <path d="M395.28 685.76L379.77 509.89" stroke="#132e65" stroke-width="1.5"></path>
        <path d="M395.28 685.76L515.17 551.91" stroke="#132e65" stroke-width="1.5"></path>
        <path d="M395.28 685.76L210.8 527.46" stroke="#132e65" stroke-width="1.5"></path>
        <path d="M395.28 685.76L649.5 693.28" stroke="#132e65" stroke-width="1.5"></path>
        <path d="M499.4 395.21L499.4 395.21" stroke="#132e65" stroke-width="1.5"></path>
        <path d="M499.4 395.21L515.17 551.91" stroke="#132e65" stroke-width="1.5"></path>
        <path d="M499.4 395.21L657.34 347.07" stroke="#132e65" stroke-width="1.5"></path>
        <path d="M515.17 551.91L515.17 551.91" stroke="#132e65" stroke-width="1.5"></path>
        <path d="M515.17 551.91L663.15 554.41" stroke="#132e65" stroke-width="1.5"></path>
        <path d="M515.17 551.91L487.86 702.02" stroke="#132e65" stroke-width="1.5"></path>
        <path d="M487.86 702.02L487.86 702.02" stroke="#132e65" stroke-width="1.5"></path>
        <path d="M640.57 229.9L640.57 229.9" stroke="#132e65" stroke-width="1.5"></path>
        <path d="M640.57 229.9L657.34 347.07" stroke="#132e65" stroke-width="1.5"></path>
        <path d="M640.57 229.9L499.4 395.21" stroke="#132e65" stroke-width="1.5"></path>
        <path d="M640.57 229.9L860.76 249.27" stroke="#132e65" stroke-width="1.5"></path>
        <path d="M640.57 229.9L811.22 391.9" stroke="#132e65" stroke-width="1.5"></path>
        <path d="M640.57 229.9L356.52 362.41" stroke="#132e65" stroke-width="1.5"></path>
        <path d="M640.57 229.9L663.15 554.41" stroke="#132e65" stroke-width="1.5"></path>
        <path d="M657.34 347.07L657.34 347.07" stroke="#132e65" stroke-width="1.5"></path>
        <path d="M657.34 347.07L811.22 391.9" stroke="#132e65" stroke-width="1.5"></path>
        <path d="M657.34 347.07L663.15 554.41" stroke="#132e65" stroke-width="1.5"></path>
        <path d="M663.15 554.41L663.15 554.41" stroke="#132e65" stroke-width="1.5"></path>
        <path d="M663.15 554.41L649.5 693.28" stroke="#132e65" stroke-width="1.5"></path>
        <path d="M663.15 554.41L839.3 556.67" stroke="#132e65" stroke-width="1.5"></path>
        <path d="M663.15 554.41L841.66 651.27" stroke="#132e65" stroke-width="1.5"></path>
        <path d="M649.5 693.28L649.5 693.28" stroke="#132e65" stroke-width="1.5"></path>
        <path d="M649.5 693.28L487.86 702.02" stroke="#132e65" stroke-width="1.5"></path>
        <path d="M649.5 693.28L515.17 551.91" stroke="#132e65" stroke-width="1.5"></path>
        <path d="M649.5 693.28L841.66 651.27" stroke="#132e65" stroke-width="1.5"></path>
        <path d="M649.5 693.28L839.3 556.67" stroke="#132e65" stroke-width="1.5"></path>
        <path d="M860.76 249.27L860.76 249.27" stroke="#132e65" stroke-width="1.5"></path>
        <path d="M860.76 249.27L973.58 242.92" stroke="#132e65" stroke-width="1.5"></path>
        <path d="M860.76 249.27L955.1 341.67" stroke="#132e65" stroke-width="1.5"></path>
        <path d="M860.76 249.27L811.22 391.9" stroke="#132e65" stroke-width="1.5"></path>
        <path d="M860.76 249.27L657.34 347.07" stroke="#132e65" stroke-width="1.5"></path>
        <path d="M811.22 391.9L811.22 391.9" stroke="#132e65" stroke-width="1.5"></path>
        <path d="M811.22 391.9L955.1 341.67" stroke="#132e65" stroke-width="1.5"></path>
        <path d="M811.22 391.9L839.3 556.67" stroke="#132e65" stroke-width="1.5"></path>
        <path d="M811.22 391.9L991.88 514.78" stroke="#132e65" stroke-width="1.5"></path>
        <path d="M811.22 391.9L663.15 554.41" stroke="#132e65" stroke-width="1.5"></path>
        <path d="M839.3 556.67L839.3 556.67" stroke="#132e65" stroke-width="1.5"></path>
        <path d="M839.3 556.67L841.66 651.27" stroke="#132e65" stroke-width="1.5"></path>
        <path d="M839.3 556.67L991.88 514.78" stroke="#132e65" stroke-width="1.5"></path>
        <path d="M841.66 651.27L841.66 651.27" stroke="#132e65" stroke-width="1.5"></path>
        <path d="M841.66 651.27L969.86 668.69" stroke="#132e65" stroke-width="1.5"></path>
        <path d="M841.66 651.27L991.88 514.78" stroke="#132e65" stroke-width="1.5"></path>
        <path d="M960 -56.66L960 -56.66" stroke="#132e65" stroke-width="1.5"></path>
        <path d="M960 -56.66L1091.02 -69.93" stroke="#132e65" stroke-width="1.5"></path>
        <path d="M960 -56.66L973.58 242.92" stroke="#132e65" stroke-width="1.5"></path>
        <path d="M960 -56.66L1141.08 193.07" stroke="#132e65" stroke-width="1.5"></path>
        <path d="M960 -56.66L860.76 249.27" stroke="#132e65" stroke-width="1.5"></path>
        <path d="M960 -56.66L1268.01 98.68" stroke="#132e65" stroke-width="1.5"></path>
        <path d="M973.58 242.92L973.58 242.92" stroke="#132e65" stroke-width="1.5"></path>
        <path d="M973.58 242.92L955.1 341.67" stroke="#132e65" stroke-width="1.5"></path>
        <path d="M973.58 242.92L1093.43 351.77" stroke="#132e65" stroke-width="1.5"></path>
        <path d="M973.58 242.92L1141.08 193.07" stroke="#132e65" stroke-width="1.5"></path>
        <path d="M973.58 242.92L811.22 391.9" stroke="#132e65" stroke-width="1.5"></path>
        <path d="M955.1 341.67L955.1 341.67" stroke="#132e65" stroke-width="1.5"></path>
        <path d="M955.1 341.67L1093.43 351.77" stroke="#132e65" stroke-width="1.5"></path>
        <path d="M955.1 341.67L991.88 514.78" stroke="#132e65" stroke-width="1.5"></path>
        <path d="M955.1 341.67L1106.96 518" stroke="#132e65" stroke-width="1.5"></path>
        <path d="M991.88 514.78L991.88 514.78" stroke="#132e65" stroke-width="1.5"></path>
        <path d="M991.88 514.78L1106.96 518" stroke="#132e65" stroke-width="1.5"></path>
        <path d="M991.88 514.78L969.86 668.69" stroke="#132e65" stroke-width="1.5"></path>
        <path d="M969.86 668.69L969.86 668.69" stroke="#132e65" stroke-width="1.5"></path>
        <path d="M969.86 668.69L1099.71 684.4" stroke="#132e65" stroke-width="1.5"></path>
        <path d="M1091.02 -69.93L1091.02 -69.93" stroke="#132e65" stroke-width="1.5"></path>
        <path d="M1091.02 -69.93L1268.01 98.68" stroke="#132e65" stroke-width="1.5"></path>
        <path d="M1091.02 -69.93L1141.08 193.07" stroke="#132e65" stroke-width="1.5"></path>
        <path d="M1091.02 -69.93L1284.98 194.55" stroke="#132e65" stroke-width="1.5"></path>
        <path d="M1141.08 193.07L1141.08 193.07" stroke="#132e65" stroke-width="1.5"></path>
        <path d="M1141.08 193.07L1284.98 194.55" stroke="#132e65" stroke-width="1.5"></path>
        <path d="M1141.08 193.07L1268.01 98.68" stroke="#132e65" stroke-width="1.5"></path>
        <path d="M1141.08 193.07L1093.43 351.77" stroke="#132e65" stroke-width="1.5"></path>
        <path d="M1141.08 193.07L1254.4 339.72" stroke="#132e65" stroke-width="1.5"></path>
        <path d="M1093.43 351.77L1093.43 351.77" stroke="#132e65" stroke-width="1.5"></path>
        <path d="M1093.43 351.77L1254.4 339.72" stroke="#132e65" stroke-width="1.5"></path>
        <path d="M1106.96 518L1106.96 518" stroke="#132e65" stroke-width="1.5"></path>
        <path d="M1106.96 518L1242.67 554.51" stroke="#132e65" stroke-width="1.5"></path>
        <path d="M1106.96 518L1099.71 684.4" stroke="#132e65" stroke-width="1.5"></path>
        <path d="M1106.96 518L1093.43 351.77" stroke="#132e65" stroke-width="1.5"></path>
        <path d="M1106.96 518L1241.28 668.51" stroke="#132e65" stroke-width="1.5"></path>
        <path d="M1106.96 518L969.86 668.69" stroke="#132e65" stroke-width="1.5"></path>
        <path d="M1099.71 684.4L1099.71 684.4" stroke="#132e65" stroke-width="1.5"></path>
        <path d="M1099.71 684.4L1241.28 668.51" stroke="#132e65" stroke-width="1.5"></path>
        <path d="M1099.71 684.4L1242.67 554.51" stroke="#132e65" stroke-width="1.5"></path>
        <path d="M1099.71 684.4L991.88 514.78" stroke="#132e65" stroke-width="1.5"></path>
        <path d="M1099.71 684.4L841.66 651.27" stroke="#132e65" stroke-width="1.5"></path>
        <path d="M1268.01 98.68L1268.01 98.68" stroke="#132e65" stroke-width="1.5"></path>
        <path d="M1268.01 98.68L1284.98 194.55" stroke="#132e65" stroke-width="1.5"></path>
        <path d="M1268.01 98.68L1431.05 63.12" stroke="#132e65" stroke-width="1.5"></path>
        <path d="M1284.98 194.55L1284.98 194.55" stroke="#132e65" stroke-width="1.5"></path>
        <path d="M1284.98 194.55L1405.31 237.82" stroke="#132e65" stroke-width="1.5"></path>
        <path d="M1254.4 339.72L1254.4 339.72" stroke="#132e65" stroke-width="1.5"></path>
        <path d="M1254.4 339.72L1284.98 194.55" stroke="#132e65" stroke-width="1.5"></path>
        <path d="M1254.4 339.72L1405.31 237.82" stroke="#132e65" stroke-width="1.5"></path>
        <path d="M1242.67 554.51L1242.67 554.51" stroke="#132e65" stroke-width="1.5"></path>
        <path d="M1242.67 554.51L1241.28 668.51" stroke="#132e65" stroke-width="1.5"></path>
        <path d="M1242.67 554.51L1444.45 511.59" stroke="#132e65" stroke-width="1.5"></path>
        <path d="M1242.67 554.51L1254.4 339.72" stroke="#132e65" stroke-width="1.5"></path>
        <path d="M1242.67 554.51L1433.82 693.35" stroke="#132e65" stroke-width="1.5"></path>
        <path d="M1241.28 668.51L1241.28 668.51" stroke="#132e65" stroke-width="1.5"></path>
        <path d="M1241.28 668.51L1433.82 693.35" stroke="#132e65" stroke-width="1.5"></path>
        <path d="M1241.28 668.51L1444.45 511.59" stroke="#132e65" stroke-width="1.5"></path>
        <path d="M1431.05 63.12L1431.05 63.12" stroke="#132e65" stroke-width="1.5"></path>
        <path d="M1431.05 63.12L1563.9 75.56" stroke="#132e65" stroke-width="1.5"></path>
        <path d="M1431.05 63.12L1566.82 -46.23" stroke="#132e65" stroke-width="1.5"></path>
        <path d="M1431.05 63.12L1405.31 237.82" stroke="#132e65" stroke-width="1.5"></path>
        <path d="M1431.05 63.12L1580.16 189.39" stroke="#132e65" stroke-width="1.5"></path>
        <path d="M1431.05 63.12L1284.98 194.55" stroke="#132e65" stroke-width="1.5"></path>
        <path d="M1405.31 237.82L1405.31 237.82" stroke="#132e65" stroke-width="1.5"></path>
        <path d="M1405.31 237.82L1445.52 390.01" stroke="#132e65" stroke-width="1.5"></path>
        <path d="M1445.52 390.01L1445.52 390.01" stroke="#132e65" stroke-width="1.5"></path>
        <path d="M1445.52 390.01L1444.45 511.59" stroke="#132e65" stroke-width="1.5"></path>
        <path d="M1445.52 390.01L1570.43 341.77" stroke="#132e65" stroke-width="1.5"></path>
        <path d="M1444.45 511.59L1444.45 511.59" stroke="#132e65" stroke-width="1.5"></path>
        <path d="M1444.45 511.59L1612.33 549.36" stroke="#132e65" stroke-width="1.5"></path>
        <path d="M1444.45 511.59L1556.6 649.48" stroke="#132e65" stroke-width="1.5"></path>
        <path d="M1444.45 511.59L1433.82 693.35" stroke="#132e65" stroke-width="1.5"></path>
        <path d="M1444.45 511.59L1570.43 341.77" stroke="#132e65" stroke-width="1.5"></path>
        <path d="M1433.82 693.35L1433.82 693.35" stroke="#132e65" stroke-width="1.5"></path>
        <path d="M1433.82 693.35L1556.6 649.48" stroke="#132e65" stroke-width="1.5"></path>
        <path d="M1566.82 -46.23L1566.82 -46.23" stroke="#132e65" stroke-width="1.5"></path>
        <path d="M1566.82 -46.23L1563.9 75.56" stroke="#132e65" stroke-width="1.5"></path>
        <path d="M1566.82 -46.23L1580.16 189.39" stroke="#132e65" stroke-width="1.5"></path>
        <path d="M1566.82 -46.23L1405.31 237.82" stroke="#132e65" stroke-width="1.5"></path>
        <path d="M1563.9 75.56L1563.9 75.56" stroke="#132e65" stroke-width="1.5"></path>
        <path d="M1563.9 75.56L1580.16 189.39" stroke="#132e65" stroke-width="1.5"></path>
        <path d="M1563.9 75.56L1405.31 237.82" stroke="#132e65" stroke-width="1.5"></path>
        <path d="M1580.16 189.39L1580.16 189.39" stroke="#132e65" stroke-width="1.5"></path>
        <path d="M1580.16 189.39L1570.43 341.77" stroke="#132e65" stroke-width="1.5"></path>
        <path d="M1580.16 189.39L1405.31 237.82" stroke="#132e65" stroke-width="1.5"></path>
        <path d="M1570.43 341.77L1570.43 341.77" stroke="#132e65" stroke-width="1.5"></path>
        <path d="M1570.43 341.77L1405.31 237.82" stroke="#132e65" stroke-width="1.5"></path>
        <path d="M1570.43 341.77L1612.33 549.36" stroke="#132e65" stroke-width="1.5"></path>
        <path d="M1570.43 341.77L1563.9 75.56" stroke="#132e65" stroke-width="1.5"></path>
        <path d="M1612.33 549.36L1612.33 549.36" stroke="#132e65" stroke-width="1.5"></path>
        <path d="M1612.33 549.36L1556.6 649.48" stroke="#132e65" stroke-width="1.5"></path>
        <path d="M1556.6 649.48L1556.6 649.48" stroke="#132e65" stroke-width="1.5"></path>
        <circle r="5" cx="-80.08" cy="351.01" fill="#132e65"></circle>
        <circle r="5" cx="-106.93" cy="527.06" fill="#132e65"></circle>
        <circle r="5" cx="-62.14" cy="647.74" fill="#132e65"></circle>
        <circle r="5" cx="86.44" cy="559.13" fill="#132e65"></circle>
        <circle r="5" cx="99.03" cy="706.12" fill="#132e65"></circle>
        <circle r="5" cx="246.01" cy="374.16" fill="#132e65"></circle>
        <circle r="5" cx="210.8" cy="527.46" fill="#132e65"></circle>
        <circle r="5" cx="209.19" cy="680.43" fill="#132e65"></circle>
        <circle r="5" cx="356.52" cy="362.41" fill="#132e65"></circle>
        <circle r="5" cx="379.77" cy="509.89" fill="#132e65"></circle>
        <circle r="5" cx="395.28" cy="685.76" fill="#132e65"></circle>
        <circle r="5" cx="499.4" cy="395.21" fill="#132e65"></circle>
        <circle r="5" cx="515.17" cy="551.91" fill="#132e65"></circle>
        <circle r="5" cx="487.86" cy="702.02" fill="#132e65"></circle>
        <circle r="5" cx="640.57" cy="229.9" fill="#132e65"></circle>
        <circle r="5" cx="657.34" cy="347.07" fill="#132e65"></circle>
        <circle r="5" cx="663.15" cy="554.41" fill="#132e65"></circle>
        <circle r="5" cx="649.5" cy="693.28" fill="#132e65"></circle>
        <circle r="5" cx="860.76" cy="249.27" fill="#132e65"></circle>
        <circle r="5" cx="811.22" cy="391.9" fill="#132e65"></circle>
        <circle r="5" cx="839.3" cy="556.67" fill="#132e65"></circle>
        <circle r="5" cx="841.66" cy="651.27" fill="#132e65"></circle>
        <circle r="5" cx="960" cy="-56.66" fill="#132e65"></circle>
        <circle r="5" cx="973.58" cy="242.92" fill="#132e65"></circle>
        <circle r="5" cx="955.1" cy="341.67" fill="#132e65"></circle>
        <circle r="5" cx="991.88" cy="514.78" fill="#132e65"></circle>
        <circle r="5" cx="969.86" cy="668.69" fill="#132e65"></circle>
        <circle r="5" cx="1091.02" cy="-69.93" fill="#132e65"></circle>
        <circle r="5" cx="1141.08" cy="193.07" fill="#132e65"></circle>
        <circle r="5" cx="1093.43" cy="351.77" fill="#132e65"></circle>
        <circle r="5" cx="1106.96" cy="518" fill="#132e65"></circle>
        <circle r="5" cx="1099.71" cy="684.4" fill="#132e65"></circle>
        <circle r="5" cx="1268.01" cy="98.68" fill="#132e65"></circle>
        <circle r="5" cx="1284.98" cy="194.55" fill="#132e65"></circle>
        <circle r="5" cx="1254.4" cy="339.72" fill="#132e65"></circle>
        <circle r="5" cx="1242.67" cy="554.51" fill="#132e65"></circle>
        <circle r="5" cx="1241.28" cy="668.51" fill="#132e65"></circle>
        <circle r="5" cx="1431.05" cy="63.12" fill="#132e65"></circle>
        <circle r="5" cx="1405.31" cy="237.82" fill="#132e65"></circle>
        <circle r="5" cx="1445.52" cy="390.01" fill="#132e65"></circle>
        <circle r="5" cx="1444.45" cy="511.59" fill="#132e65"></circle>
        <circle r="5" cx="1433.82" cy="693.35" fill="#132e65"></circle>
        <circle r="5" cx="1566.82" cy="-46.23" fill="#132e65"></circle>
        <circle r="5" cx="1563.9" cy="75.56" fill="#132e65"></circle>
        <circle r="5" cx="1580.16" cy="189.39" fill="#132e65"></circle>
        <circle r="5" cx="1570.43" cy="341.77" fill="#132e65"></circle>
        <circle r="5" cx="1612.33" cy="549.36" fill="#132e65"></circle>
        <circle r="5" cx="1556.6" cy="649.48" fill="#132e65"></circle>
        <path d="M238.34 703.3L238.34 703.3" stroke="hsl(228.5, 77.2%, 51.5%)" stroke-width="1.5"></path>
        <path d="M238.34 703.3L101.36 678.3" stroke="hsl(228.5, 77.2%, 51.5%)" stroke-width="1.5"></path>
        <path d="M238.34 703.3L197.1 553.32" stroke="hsl(228.5, 77.2%, 51.5%)" stroke-width="1.5"></path>
        <path d="M238.34 703.3L392.51 647.1" stroke="hsl(228.5, 77.2%, 51.5%)" stroke-width="1.5"></path>
        <path d="M402 505.97L402 505.97" stroke="hsl(228.5, 77.2%, 51.5%)" stroke-width="1.5"></path>
        <path d="M402 505.97L492.76 405.02" stroke="hsl(228.5, 77.2%, 51.5%)" stroke-width="1.5"></path>
        <path d="M402 505.97L392.51 647.1" stroke="hsl(228.5, 77.2%, 51.5%)" stroke-width="1.5"></path>
        <path d="M402 505.97L558.74 544.35" stroke="hsl(228.5, 77.2%, 51.5%)" stroke-width="1.5"></path>
        <path d="M402 505.97L534.17 645.2" stroke="hsl(228.5, 77.2%, 51.5%)" stroke-width="1.5"></path>
        <path d="M402 505.97L197.1 553.32" stroke="hsl(228.5, 77.2%, 51.5%)" stroke-width="1.5"></path>
        <path d="M677.75 513.25L677.75 513.25" stroke="hsl(228.5, 77.2%, 51.5%)" stroke-width="1.5"></path>
        <path d="M677.75 513.25L667.93 403.9" stroke="hsl(228.5, 77.2%, 51.5%)" stroke-width="1.5"></path>
        <path d="M677.75 513.25L790.59 508.32" stroke="hsl(228.5, 77.2%, 51.5%)" stroke-width="1.5"></path>
        <path d="M677.75 513.25L558.74 544.35" stroke="hsl(228.5, 77.2%, 51.5%)" stroke-width="1.5"></path>
        <path d="M677.75 513.25L793.18 641.86" stroke="hsl(228.5, 77.2%, 51.5%)" stroke-width="1.5"></path>
        <path d="M677.75 513.25L662.87 702.49" stroke="hsl(228.5, 77.2%, 51.5%)" stroke-width="1.5"></path>
        <path d="M790.59 508.32L790.59 508.32" stroke="hsl(228.5, 77.2%, 51.5%)" stroke-width="1.5"></path>
        <path d="M790.59 508.32L793.18 641.86" stroke="hsl(228.5, 77.2%, 51.5%)" stroke-width="1.5"></path>
        <path d="M790.59 508.32L790.54 355.33" stroke="hsl(228.5, 77.2%, 51.5%)" stroke-width="1.5"></path>
        <path d="M790.59 508.32L667.93 403.9" stroke="hsl(228.5, 77.2%, 51.5%)" stroke-width="1.5"></path>
        <path d="M1006.58 550.59L1006.58 550.59" stroke="hsl(228.5, 77.2%, 51.5%)" stroke-width="1.5"></path>
        <path d="M1006.58 550.59L956.45 650.79" stroke="hsl(228.5, 77.2%, 51.5%)" stroke-width="1.5"></path>
        <path d="M1006.58 550.59L1148.62 556.14" stroke="hsl(228.5, 77.2%, 51.5%)" stroke-width="1.5"></path>
        <path d="M1148.62 556.14L1148.62 556.14" stroke="hsl(228.5, 77.2%, 51.5%)" stroke-width="1.5"></path>
        <path d="M1148.62 556.14L1255.81 496.76" stroke="hsl(228.5, 77.2%, 51.5%)" stroke-width="1.5"></path>
        <path d="M1148.62 556.14L1114.39 674.06" stroke="hsl(228.5, 77.2%, 51.5%)" stroke-width="1.5"></path>
        <path d="M1255.81 496.76L1255.81 496.76" stroke="hsl(228.5, 77.2%, 51.5%)" stroke-width="1.5"></path>
        <path d="M1255.81 496.76L1261.58 358.51" stroke="hsl(228.5, 77.2%, 51.5%)" stroke-width="1.5"></path>
        <path d="M1255.81 496.76L1415.07 559.37" stroke="hsl(228.5, 77.2%, 51.5%)" stroke-width="1.5"></path>
        <path d="M1255.81 496.76L1305.89 674.34" stroke="hsl(228.5, 77.2%, 51.5%)" stroke-width="1.5"></path>
        <path d="M1548.99 234.26L1548.99 234.26" stroke="hsl(228.5, 77.2%, 51.5%)" stroke-width="1.5"></path>
        <path d="M1548.99 234.26L1446.58 195.79" stroke="hsl(228.5, 77.2%, 51.5%)" stroke-width="1.5"></path>
        <path d="M1548.99 234.26L1576.46 357.03" stroke="hsl(228.5, 77.2%, 51.5%)" stroke-width="1.5"></path>
        <path d="M1548.99 234.26L1447.49 356.38" stroke="hsl(228.5, 77.2%, 51.5%)" stroke-width="1.5"></path>
        <path d="M1548.99 234.26L1449.08 98.91" stroke="hsl(228.5, 77.2%, 51.5%)" stroke-width="1.5"></path>
        <path d="M-71.99 503.55L-71.99 503.55" stroke="hsl(228.5, 77.2%, 51.5%)" stroke-width="1.5"></path>
        <path d="M-71.99 503.55L45.83 492.07" stroke="hsl(228.5, 77.2%, 51.5%)" stroke-width="1.5"></path>
        <path d="M-71.99 503.55L-55.29 695.71" stroke="hsl(228.5, 77.2%, 51.5%)" stroke-width="1.5"></path>
        <path d="M-71.99 503.55L101.36 678.3" stroke="hsl(228.5, 77.2%, 51.5%)" stroke-width="1.5"></path>
        <path d="M-71.99 503.55L197.1 553.32" stroke="hsl(228.5, 77.2%, 51.5%)" stroke-width="1.5"></path>
        <path d="M-71.99 503.55L238.34 703.3" stroke="hsl(228.5, 77.2%, 51.5%)" stroke-width="1.5"></path>
        <path d="M-55.29 695.71L-55.29 695.71" stroke="hsl(228.5, 77.2%, 51.5%)" stroke-width="1.5"></path>
        <path d="M-55.29 695.71L101.36 678.3" stroke="hsl(228.5, 77.2%, 51.5%)" stroke-width="1.5"></path>
        <path d="M45.83 492.07L45.83 492.07" stroke="hsl(228.5, 77.2%, 51.5%)" stroke-width="1.5"></path>
        <path d="M45.83 492.07L197.1 553.32" stroke="hsl(228.5, 77.2%, 51.5%)" stroke-width="1.5"></path>
        <path d="M45.83 492.07L101.36 678.3" stroke="hsl(228.5, 77.2%, 51.5%)" stroke-width="1.5"></path>
        <path d="M45.83 492.07L-55.29 695.71" stroke="hsl(228.5, 77.2%, 51.5%)" stroke-width="1.5"></path>
        <path d="M101.36 678.3L101.36 678.3" stroke="hsl(228.5, 77.2%, 51.5%)" stroke-width="1.5"></path>
        <path d="M101.36 678.3L197.1 553.32" stroke="hsl(228.5, 77.2%, 51.5%)" stroke-width="1.5"></path>
        <path d="M197.1 553.32L197.1 553.32" stroke="hsl(228.5, 77.2%, 51.5%)" stroke-width="1.5"></path>
        <path d="M392.51 647.1L392.51 647.1" stroke="hsl(228.5, 77.2%, 51.5%)" stroke-width="1.5"></path>
        <path d="M392.51 647.1L534.17 645.2" stroke="hsl(228.5, 77.2%, 51.5%)" stroke-width="1.5"></path>
        <path d="M492.76 405.02L492.76 405.02" stroke="hsl(228.5, 77.2%, 51.5%)" stroke-width="1.5"></path>
        <path d="M492.76 405.02L558.74 544.35" stroke="hsl(228.5, 77.2%, 51.5%)" stroke-width="1.5"></path>
        <path d="M492.76 405.02L667.93 403.9" stroke="hsl(228.5, 77.2%, 51.5%)" stroke-width="1.5"></path>
        <path d="M558.74 544.35L558.74 544.35" stroke="hsl(228.5, 77.2%, 51.5%)" stroke-width="1.5"></path>
        <path d="M558.74 544.35L534.17 645.2" stroke="hsl(228.5, 77.2%, 51.5%)" stroke-width="1.5"></path>
        <path d="M558.74 544.35L667.93 403.9" stroke="hsl(228.5, 77.2%, 51.5%)" stroke-width="1.5"></path>
        <path d="M558.74 544.35L662.87 702.49" stroke="hsl(228.5, 77.2%, 51.5%)" stroke-width="1.5"></path>
        <path d="M534.17 645.2L534.17 645.2" stroke="hsl(228.5, 77.2%, 51.5%)" stroke-width="1.5"></path>
        <path d="M534.17 645.2L662.87 702.49" stroke="hsl(228.5, 77.2%, 51.5%)" stroke-width="1.5"></path>
        <path d="M667.93 403.9L667.93 403.9" stroke="hsl(228.5, 77.2%, 51.5%)" stroke-width="1.5"></path>
        <path d="M667.93 403.9L790.54 355.33" stroke="hsl(228.5, 77.2%, 51.5%)" stroke-width="1.5"></path>
        <path d="M662.87 702.49L662.87 702.49" stroke="hsl(228.5, 77.2%, 51.5%)" stroke-width="1.5"></path>
        <path d="M662.87 702.49L793.18 641.86" stroke="hsl(228.5, 77.2%, 51.5%)" stroke-width="1.5"></path>
        <path d="M662.87 702.49L790.59 508.32" stroke="hsl(228.5, 77.2%, 51.5%)" stroke-width="1.5"></path>
        <path d="M790.54 355.33L790.54 355.33" stroke="hsl(228.5, 77.2%, 51.5%)" stroke-width="1.5"></path>
        <path d="M790.54 355.33L944.32 390.36" stroke="hsl(228.5, 77.2%, 51.5%)" stroke-width="1.5"></path>
        <path d="M790.54 355.33L677.75 513.25" stroke="hsl(228.5, 77.2%, 51.5%)" stroke-width="1.5"></path>
        <path d="M790.54 355.33L989.62 233.09" stroke="hsl(228.5, 77.2%, 51.5%)" stroke-width="1.5"></path>
        <path d="M790.54 355.33L793.18 641.86" stroke="hsl(228.5, 77.2%, 51.5%)" stroke-width="1.5"></path>
        <path d="M793.18 641.86L793.18 641.86" stroke="hsl(228.5, 77.2%, 51.5%)" stroke-width="1.5"></path>
        <path d="M989.62 233.09L989.62 233.09" stroke="hsl(228.5, 77.2%, 51.5%)" stroke-width="1.5"></path>
        <path d="M989.62 233.09L1121.85 189.42" stroke="hsl(228.5, 77.2%, 51.5%)" stroke-width="1.5"></path>
        <path d="M989.62 233.09L944.32 390.36" stroke="hsl(228.5, 77.2%, 51.5%)" stroke-width="1.5"></path>
        <path d="M989.62 233.09L1125.82 351.5" stroke="hsl(228.5, 77.2%, 51.5%)" stroke-width="1.5"></path>
        <path d="M944.32 390.36L944.32 390.36" stroke="hsl(228.5, 77.2%, 51.5%)" stroke-width="1.5"></path>
        <path d="M944.32 390.36L1006.58 550.59" stroke="hsl(228.5, 77.2%, 51.5%)" stroke-width="1.5"></path>
        <path d="M956.45 650.79L956.45 650.79" stroke="hsl(228.5, 77.2%, 51.5%)" stroke-width="1.5"></path>
        <path d="M956.45 650.79L1114.39 674.06" stroke="hsl(228.5, 77.2%, 51.5%)" stroke-width="1.5"></path>
        <path d="M1121.85 189.42L1121.85 189.42" stroke="hsl(228.5, 77.2%, 51.5%)" stroke-width="1.5"></path>
        <path d="M1121.85 189.42L1249.07 109.33" stroke="hsl(228.5, 77.2%, 51.5%)" stroke-width="1.5"></path>
        <path d="M1121.85 189.42L1125.82 351.5" stroke="hsl(228.5, 77.2%, 51.5%)" stroke-width="1.5"></path>
        <path d="M1121.85 189.42L1309.74 259.62" stroke="hsl(228.5, 77.2%, 51.5%)" stroke-width="1.5"></path>
        <path d="M1121.85 189.42L1261.58 358.51" stroke="hsl(228.5, 77.2%, 51.5%)" stroke-width="1.5"></path>
        <path d="M1121.85 189.42L944.32 390.36" stroke="hsl(228.5, 77.2%, 51.5%)" stroke-width="1.5"></path>
        <path d="M1125.82 351.5L1125.82 351.5" stroke="hsl(228.5, 77.2%, 51.5%)" stroke-width="1.5"></path>
        <path d="M1125.82 351.5L1261.58 358.51" stroke="hsl(228.5, 77.2%, 51.5%)" stroke-width="1.5"></path>
        <path d="M1125.82 351.5L944.32 390.36" stroke="hsl(228.5, 77.2%, 51.5%)" stroke-width="1.5"></path>
        <path d="M1114.39 674.06L1114.39 674.06" stroke="hsl(228.5, 77.2%, 51.5%)" stroke-width="1.5"></path>
        <path d="M1114.39 674.06L1006.58 550.59" stroke="hsl(228.5, 77.2%, 51.5%)" stroke-width="1.5"></path>
        <path d="M1114.39 674.06L1305.89 674.34" stroke="hsl(228.5, 77.2%, 51.5%)" stroke-width="1.5"></path>
        <path d="M1277.01 -66L1277.01 -66" stroke="hsl(228.5, 77.2%, 51.5%)" stroke-width="1.5"></path>
        <path d="M1277.01 -66L1249.07 109.33" stroke="hsl(228.5, 77.2%, 51.5%)" stroke-width="1.5"></path>
        <path d="M1249.07 109.33L1249.07 109.33" stroke="hsl(228.5, 77.2%, 51.5%)" stroke-width="1.5"></path>
        <path d="M1249.07 109.33L1309.74 259.62" stroke="hsl(228.5, 77.2%, 51.5%)" stroke-width="1.5"></path>
        <path d="M1309.74 259.62L1309.74 259.62" stroke="hsl(228.5, 77.2%, 51.5%)" stroke-width="1.5"></path>
        <path d="M1309.74 259.62L1261.58 358.51" stroke="hsl(228.5, 77.2%, 51.5%)" stroke-width="1.5"></path>
        <path d="M1309.74 259.62L1446.58 195.79" stroke="hsl(228.5, 77.2%, 51.5%)" stroke-width="1.5"></path>
        <path d="M1261.58 358.51L1261.58 358.51" stroke="hsl(228.5, 77.2%, 51.5%)" stroke-width="1.5"></path>
        <path d="M1305.89 674.34L1305.89 674.34" stroke="hsl(228.5, 77.2%, 51.5%)" stroke-width="1.5"></path>
        <path d="M1305.89 674.34L1458.21 674.55" stroke="hsl(228.5, 77.2%, 51.5%)" stroke-width="1.5"></path>
        <path d="M1305.89 674.34L1415.07 559.37" stroke="hsl(228.5, 77.2%, 51.5%)" stroke-width="1.5"></path>
        <path d="M1305.89 674.34L1148.62 556.14" stroke="hsl(228.5, 77.2%, 51.5%)" stroke-width="1.5"></path>
        <path d="M1459.86 -53.34L1459.86 -53.34" stroke="hsl(228.5, 77.2%, 51.5%)" stroke-width="1.5"></path>
        <path d="M1459.86 -53.34L1578.14 -40.67" stroke="hsl(228.5, 77.2%, 51.5%)" stroke-width="1.5"></path>
        <path d="M1459.86 -53.34L1567.76 47.54" stroke="hsl(228.5, 77.2%, 51.5%)" stroke-width="1.5"></path>
        <path d="M1459.86 -53.34L1449.08 98.91" stroke="hsl(228.5, 77.2%, 51.5%)" stroke-width="1.5"></path>
        <path d="M1449.08 98.91L1449.08 98.91" stroke="hsl(228.5, 77.2%, 51.5%)" stroke-width="1.5"></path>
        <path d="M1449.08 98.91L1446.58 195.79" stroke="hsl(228.5, 77.2%, 51.5%)" stroke-width="1.5"></path>
        <path d="M1449.08 98.91L1567.76 47.54" stroke="hsl(228.5, 77.2%, 51.5%)" stroke-width="1.5"></path>
        <path d="M1449.08 98.91L1578.14 -40.67" stroke="hsl(228.5, 77.2%, 51.5%)" stroke-width="1.5"></path>
        <path d="M1449.08 98.91L1249.07 109.33" stroke="hsl(228.5, 77.2%, 51.5%)" stroke-width="1.5"></path>
        <path d="M1446.58 195.79L1446.58 195.79" stroke="hsl(228.5, 77.2%, 51.5%)" stroke-width="1.5"></path>
        <path d="M1446.58 195.79L1447.49 356.38" stroke="hsl(228.5, 77.2%, 51.5%)" stroke-width="1.5"></path>
        <path d="M1447.49 356.38L1447.49 356.38" stroke="hsl(228.5, 77.2%, 51.5%)" stroke-width="1.5"></path>
        <path d="M1447.49 356.38L1576.46 357.03" stroke="hsl(228.5, 77.2%, 51.5%)" stroke-width="1.5"></path>
        <path d="M1415.07 559.37L1415.07 559.37" stroke="hsl(228.5, 77.2%, 51.5%)" stroke-width="1.5"></path>
        <path d="M1415.07 559.37L1458.21 674.55" stroke="hsl(228.5, 77.2%, 51.5%)" stroke-width="1.5"></path>
        <path d="M1415.07 559.37L1600.46 534.76" stroke="hsl(228.5, 77.2%, 51.5%)" stroke-width="1.5"></path>
        <path d="M1415.07 559.37L1447.49 356.38" stroke="hsl(228.5, 77.2%, 51.5%)" stroke-width="1.5"></path>
        <path d="M1415.07 559.37L1579.57 701.93" stroke="hsl(228.5, 77.2%, 51.5%)" stroke-width="1.5"></path>
        <path d="M1458.21 674.55L1458.21 674.55" stroke="hsl(228.5, 77.2%, 51.5%)" stroke-width="1.5"></path>
        <path d="M1458.21 674.55L1579.57 701.93" stroke="hsl(228.5, 77.2%, 51.5%)" stroke-width="1.5"></path>
        <path d="M1458.21 674.55L1600.46 534.76" stroke="hsl(228.5, 77.2%, 51.5%)" stroke-width="1.5"></path>
        <path d="M1578.14 -40.67L1578.14 -40.67" stroke="hsl(228.5, 77.2%, 51.5%)" stroke-width="1.5"></path>
        <path d="M1578.14 -40.67L1567.76 47.54" stroke="hsl(228.5, 77.2%, 51.5%)" stroke-width="1.5"></path>
        <path d="M1578.14 -40.67L1446.58 195.79" stroke="hsl(228.5, 77.2%, 51.5%)" stroke-width="1.5"></path>
        <path d="M1578.14 -40.67L1548.99 234.26" stroke="hsl(228.5, 77.2%, 51.5%)" stroke-width="1.5"></path>
        <path d="M1578.14 -40.67L1277.01 -66" stroke="hsl(228.5, 77.2%, 51.5%)" stroke-width="1.5"></path>
        <path d="M1567.76 47.54L1567.76 47.54" stroke="hsl(228.5, 77.2%, 51.5%)" stroke-width="1.5"></path>
        <path d="M1567.76 47.54L1548.99 234.26" stroke="hsl(228.5, 77.2%, 51.5%)" stroke-width="1.5"></path>
        <path d="M1576.46 357.03L1576.46 357.03" stroke="hsl(228.5, 77.2%, 51.5%)" stroke-width="1.5"></path>
        <path d="M1576.46 357.03L1600.46 534.76" stroke="hsl(228.5, 77.2%, 51.5%)" stroke-width="1.5"></path>
        <path d="M1576.46 357.03L1446.58 195.79" stroke="hsl(228.5, 77.2%, 51.5%)" stroke-width="1.5"></path>
        <path d="M1576.46 357.03L1415.07 559.37" stroke="hsl(228.5, 77.2%, 51.5%)" stroke-width="1.5"></path>
        <path d="M1576.46 357.03L1309.74 259.62" stroke="hsl(228.5, 77.2%, 51.5%)" stroke-width="1.5"></path>
        <path d="M1600.46 534.76L1600.46 534.76" stroke="hsl(228.5, 77.2%, 51.5%)" stroke-width="1.5"></path>
        <path d="M1600.46 534.76L1579.57 701.93" stroke="hsl(228.5, 77.2%, 51.5%)" stroke-width="1.5"></path>
        <path d="M1600.46 534.76L1447.49 356.38" stroke="hsl(228.5, 77.2%, 51.5%)" stroke-width="1.5"></path>
        <path d="M1600.46 534.76L1548.99 234.26" stroke="hsl(228.5, 77.2%, 51.5%)" stroke-width="1.5"></path>
        <path d="M1579.57 701.93L1579.57 701.93" stroke="hsl(228.5, 77.2%, 51.5%)" stroke-width="1.5"></path>
        <circle r="25" cx="238.34" cy="703.3" fill="url(#SvgjsRadialGradient1003)"></circle>
        <circle r="25" cx="402" cy="505.97" fill="url(#SvgjsRadialGradient1003)"></circle>
        <circle r="25" cx="677.75" cy="513.25" fill="url(#SvgjsRadialGradient1003)"></circle>
        <circle r="25" cx="790.59" cy="508.32" fill="url(#SvgjsRadialGradient1003)"></circle>
        <circle r="25" cx="1006.58" cy="550.59" fill="url(#SvgjsRadialGradient1003)"></circle>
        <circle r="25" cx="1148.62" cy="556.14" fill="url(#SvgjsRadialGradient1003)"></circle>
        <circle r="25" cx="1255.81" cy="496.76" fill="url(#SvgjsRadialGradient1003)"></circle>
        <circle r="25" cx="1548.99" cy="234.26" fill="url(#SvgjsRadialGradient1003)"></circle>
        <circle r="5" cx="-71.99" cy="503.55" fill="#8b9ad9"></circle>
        <circle r="5" cx="-55.29" cy="695.71" fill="#8b9ad9"></circle>
        <circle r="5" cx="45.83" cy="492.07" fill="#8b9ad9"></circle>
        <circle r="5" cx="101.36" cy="678.3" fill="#8b9ad9"></circle>
        <circle r="5" cx="197.1" cy="553.32" fill="#8b9ad9"></circle>
        <circle r="5" cx="392.51" cy="647.1" fill="#8b9ad9"></circle>
        <circle r="5" cx="492.76" cy="405.02" fill="#8b9ad9"></circle>
        <circle r="5" cx="558.74" cy="544.35" fill="#8b9ad9"></circle>
        <circle r="5" cx="534.17" cy="645.2" fill="#8b9ad9"></circle>
        <circle r="5" cx="667.93" cy="403.9" fill="#8b9ad9"></circle>
        <circle r="5" cx="662.87" cy="702.49" fill="#8b9ad9"></circle>
        <circle r="5" cx="790.54" cy="355.33" fill="#8b9ad9"></circle>
        <circle r="5" cx="793.18" cy="641.86" fill="#8b9ad9"></circle>
        <circle r="5" cx="989.62" cy="233.09" fill="#8b9ad9"></circle>
        <circle r="5" cx="944.32" cy="390.36" fill="#8b9ad9"></circle>
        <circle r="5" cx="956.45" cy="650.79" fill="#8b9ad9"></circle>
        <circle r="5" cx="1121.85" cy="189.42" fill="#8b9ad9"></circle>
        <circle r="5" cx="1125.82" cy="351.5" fill="#8b9ad9"></circle>
        <circle r="5" cx="1114.39" cy="674.06" fill="#8b9ad9"></circle>
        <circle r="5" cx="1277.01" cy="-66" fill="#8b9ad9"></circle>
        <circle r="5" cx="1249.07" cy="109.33" fill="#8b9ad9"></circle>
        <circle r="5" cx="1309.74" cy="259.62" fill="#8b9ad9"></circle>
        <circle r="5" cx="1261.58" cy="358.51" fill="#8b9ad9"></circle>
        <circle r="5" cx="1305.89" cy="674.34" fill="#8b9ad9"></circle>
        <circle r="5" cx="1459.86" cy="-53.34" fill="#8b9ad9"></circle>
        <circle r="5" cx="1449.08" cy="98.91" fill="#8b9ad9"></circle>
        <circle r="5" cx="1446.58" cy="195.79" fill="#8b9ad9"></circle>
        <circle r="5" cx="1447.49" cy="356.38" fill="#8b9ad9"></circle>
        <circle r="5" cx="1415.07" cy="559.37" fill="#8b9ad9"></circle>
        <circle r="5" cx="1458.21" cy="674.55" fill="#8b9ad9"></circle>
        <circle r="5" cx="1578.14" cy="-40.67" fill="#8b9ad9"></circle>
        <circle r="5" cx="1567.76" cy="47.54" fill="#8b9ad9"></circle>
        <circle r="5" cx="1576.46" cy="357.03" fill="#8b9ad9"></circle>
        <circle r="5" cx="1600.46" cy="534.76" fill="#8b9ad9"></circle>
        <circle r="5" cx="1579.57" cy="701.93" fill="#8b9ad9"></circle>
    </g>
    <defs>
        <mask id="SvgjsMask1002">
            <rect width="1440" height="560" fill="#ffffff"></rect>
        </mask>
        <radialGradient id="SvgjsRadialGradient1003">
            <stop stop-color="#ffffff" offset="0.1"></stop>
            <stop stop-color="#1735b3" offset="0.2"></stop>
            <stop stop-color="rgba(23, 53, 179, 0)" offset="1"></stop>
        </radialGradient>
    </defs>
</svg>